<svg width="594" height="209" viewBox="0 0 594 209" fill="none" xmlns="http://www.w3.org/2000/svg">
<path d="M101.627 138.495C102.08 138.084 102.604 137.99 103.199 138.212C103.828 138.402 104.449 138.885 105.062 139.659C106.2 141.098 106.774 142.542 106.782 143.991C106.801 147.646 106.423 150.837 105.647 153.565C104.843 156.256 103.272 158.659 100.935 160.774C98.3535 163.11 95.6156 164.226 92.721 164.123C89.7972 163.984 86.2776 162.864 82.1621 160.763C79.1892 159.275 76.8869 158.256 75.2552 157.707C73.6292 157.089 72.2951 156.84 71.2529 156.96C70.1815 157.044 69.0962 157.488 67.997 158.292L70.6613 162.909C74.1026 168.848 75.6788 173.943 75.3898 178.193C75.1356 182.412 73.1597 186.194 69.4621 189.541C67.0552 191.719 64.4283 193.051 61.5814 193.538C58.7402 193.957 56.1944 193.538 53.9441 192.283C53.1745 191.84 52.4833 191.231 51.8703 190.456C50.9947 189.349 50.48 188.168 50.3262 186.915C50.1724 185.661 50.4793 184.687 51.2467 183.992C51.7002 183.582 52.1861 183.364 52.7043 183.338C53.1934 183.275 53.811 183.413 54.557 183.751C57.3313 184.912 59.4553 185.554 60.9289 185.677C62.4374 185.768 63.8021 185.261 65.0231 184.156C66.4184 182.893 67.079 181.156 67.005 178.943C66.9366 176.663 66.0026 173.931 64.2029 170.748L60.7762 164.827L59.939 165.585C59.1367 166.311 58.3191 166.639 57.4862 166.57C56.6532 166.501 55.9011 166.042 55.2298 165.193C54.4709 164.234 54.0993 163.272 54.115 162.308C54.1363 161.276 54.4958 160.444 55.1935 159.813L56.9202 158.25C55.7342 156.221 54.9162 154.809 54.4663 154.013L46.2374 140.092C45.2429 140.802 44.3445 141.52 43.5421 142.246C40.5771 144.929 38.7649 147.519 38.1057 150.015C37.4173 152.474 37.8758 154.718 39.4811 156.748C40.2108 157.67 40.8964 158.348 41.5378 158.78C42.1849 159.144 42.9427 159.535 43.8113 159.952C44.1843 160.12 44.5167 160.389 44.8086 160.758C45.4508 161.57 45.6537 162.621 45.4173 163.911C45.1866 165.133 44.6353 166.139 43.7632 166.928C42.6469 167.938 41.4186 168.163 40.078 167.604C37.4846 166.595 35.2976 164.965 33.5172 162.715C31.6783 160.39 30.593 157.732 30.2613 154.74C29.9644 151.716 30.5845 148.528 32.1215 145.174C33.6293 141.783 36.1797 138.462 39.7726 135.211C41.3424 133.79 42.8456 132.588 44.2822 131.605C45.7537 130.59 47.4786 129.63 49.457 128.726C51.6041 127.733 53.276 127.992 54.4727 129.505C56.078 131.535 56.0609 133.291 54.4214 134.775L64.1581 151.51C67.8892 147.374 69.7437 142.53 69.7216 136.978C69.7052 131.358 68.3334 124.971 65.6061 117.815C65.1028 116.498 64.9985 115.231 65.2932 114.015C65.6228 112.767 66.3632 111.622 67.5143 110.58C68.4911 109.696 69.4308 109.257 70.3335 109.264C71.2419 109.201 72.0317 109.594 72.703 110.443C72.9073 110.701 73.1732 111.189 73.5007 111.905C76.5726 119.572 77.902 126.663 77.4891 133.178C77.0762 139.693 75.4182 145.277 72.5151 149.93C74.1033 149.063 75.5788 148.582 76.9413 148.489C78.3388 148.364 79.7281 148.531 81.1092 148.99C82.4611 149.413 84.2066 150.144 86.3459 151.184C89.3537 152.641 91.7371 153.459 93.4962 153.64C95.2262 153.784 96.719 153.288 97.9748 152.151C99.0911 151.141 99.8485 149.791 100.247 148.1C100.617 146.373 100.81 143.856 100.827 140.548C100.837 139.653 101.104 138.968 101.627 138.495Z" fill="#EF5152"/>
<path d="M91.8541 114.763C90.2568 115.926 88.8189 116.422 87.5402 116.249C86.2363 116.037 85.1422 115.237 84.2579 113.848C83.3737 112.459 83.1544 110.934 83.6002 109.273C84.0587 107.545 85.0676 106.113 86.6268 104.978C88.0339 103.953 89.4022 103.479 90.7317 103.557C92.0611 103.634 93.1427 104.328 93.9765 105.637C94.987 107.225 95.3011 108.855 94.9186 110.527C94.5109 112.16 93.4894 113.572 91.8541 114.763ZM106.728 150.72C105.511 151.606 104.51 151.957 103.725 151.774C102.941 151.59 102.195 150.943 101.487 149.832C101.285 149.514 100.969 148.931 100.54 148.082C96.5253 140.376 93.3266 133.034 90.9441 126.056C90.4651 124.604 90.4163 123.391 90.7977 122.416C91.1918 121.374 92.1685 120.285 93.7278 119.149C95.3631 117.958 96.6229 118.057 97.5071 119.446C97.6334 119.645 97.8354 120.05 98.1131 120.661C101.808 130.4 105.316 138.272 108.637 144.276C109.37 145.601 109.577 146.757 109.259 147.744C108.941 148.731 108.097 149.723 106.728 150.72Z" fill="#EF5152"/>
<path d="M132.203 141.771C128.429 144.167 124.843 144.913 121.442 144.012C118.059 143.045 115.329 140.689 113.252 136.945C111.403 133.613 110.418 130.289 110.297 126.972C110.176 123.656 110.751 120.676 112.024 118.033C113.297 115.39 115.045 113.362 117.269 111.95C119.454 110.564 121.519 110.171 123.464 110.772C125.425 111.307 126.988 112.624 128.152 114.722C129.111 116.45 129.544 118.149 129.451 119.822C129.398 121.468 128.776 122.67 127.584 123.426C126.829 123.905 126.111 124.111 125.429 124.043C124.786 123.95 124.283 123.575 123.917 122.916C123.758 122.629 123.615 122.274 123.489 121.854C123.363 121.433 123.274 121.128 123.223 120.938C123.079 120.195 122.859 119.556 122.562 119.021C122.265 118.486 121.898 118.163 121.46 118.051C121.062 117.915 120.625 117.998 120.148 118.3C119.234 118.88 118.62 119.854 118.305 121.222C117.967 122.549 117.959 124.084 118.281 125.826C118.603 127.569 119.244 129.304 120.202 131.032C121.503 133.377 122.953 134.876 124.551 135.531C126.166 136.119 127.828 135.871 129.536 134.786C130.887 133.929 131.89 132.736 132.545 131.208C133.241 129.654 133.7 127.722 133.922 125.411C134.056 124.492 134.421 123.843 135.017 123.465C135.533 123.137 136.067 123.132 136.619 123.449C137.211 123.741 137.747 124.319 138.226 125.183C139.048 126.664 139.417 128.153 139.336 129.651C139.222 132.06 138.576 134.333 137.399 136.471C136.199 138.568 134.467 140.334 132.203 141.771Z" fill="#EF5152"/>
<path d="M166.808 113.785C168.677 113.244 169.969 113.768 170.684 115.355C171.167 116.427 171.121 117.64 170.545 118.994C169.992 120.283 168.838 121.38 167.081 122.285C164.07 123.836 161.177 124.164 158.403 123.268C155.652 122.307 153.581 120.282 152.19 117.194C151.437 115.521 151.732 113.889 153.077 112.297C154.55 110.534 155.481 108.998 155.87 107.687C156.239 106.334 156.125 104.993 155.526 103.663C155.178 102.891 154.75 102.398 154.241 102.184C153.775 101.949 153.311 101.95 152.851 102.187C151.722 102.769 150.844 104.252 150.218 106.636C149.633 108.998 149.354 111.811 149.38 115.074C149.388 118.294 149.685 121.47 150.271 124.603C150.719 126.857 150.794 128.509 150.495 129.562C150.218 130.55 149.432 131.378 148.135 132.046C146.839 132.714 145.665 132.738 144.612 132.117C143.582 131.432 142.509 130.135 141.392 128.227C140.275 126.318 138.837 123.412 137.079 119.509C134.104 112.903 131.652 105.684 129.722 97.8518C127.834 89.9984 127.074 82.9909 127.442 76.8291C127.833 70.6029 129.827 66.5633 133.423 64.7102C135.347 63.719 137.281 63.7797 139.225 64.8923C141.191 65.9404 142.783 67.8158 144 70.5183C145.951 74.8509 146.746 79.9908 146.384 85.9379C146.003 91.8421 144.432 99.3371 141.671 108.423C142.55 110.718 143.52 113.046 144.583 115.405C144.176 109.009 144.727 103.941 146.239 100.203C147.73 96.422 149.606 93.9497 151.864 92.7861C153.955 91.7088 155.956 91.5762 157.868 92.3883C159.821 93.1788 161.281 94.6465 162.247 96.7914C163.309 99.1507 163.699 101.619 163.417 104.195C163.135 106.772 161.919 109.565 159.771 112.574C160.601 113.732 161.509 114.374 162.494 114.501C163.501 114.564 164.939 114.325 166.808 113.785ZM134.975 71.7592C134.222 72.147 133.888 73.6933 133.972 76.398C134.037 79.0598 134.481 82.5044 135.303 86.7319C136.147 90.8949 137.292 95.3257 138.738 100.024C139.921 95.5568 140.518 91.0475 140.53 86.4965C140.583 81.9239 139.933 78.1362 138.581 75.1334C137.963 73.7607 137.343 72.7851 136.722 72.2067C136.101 71.6282 135.519 71.4791 134.975 71.7592Z" fill="#EF5152"/>
<path d="M186.75 116.904C184.484 117.825 182.551 118.002 180.953 117.435C179.398 116.849 178.384 115.892 177.911 114.562C177.502 113.409 177.561 112.243 178.09 111.064C178.618 109.885 179.689 108.968 181.302 108.312C181.868 108.082 182.545 107.883 183.334 107.714C184.15 107.484 184.762 107.311 185.169 107.196C184.716 106.061 184.069 105.081 183.227 104.257C182.429 103.414 181.515 102.67 180.487 102.022C179.443 101.331 178.49 100.754 177.628 100.293C177.207 103.458 176.628 106.179 175.891 108.458C175.198 110.718 174.343 112.943 173.326 115.133C172.825 116.25 172.139 116.985 171.267 117.34C170.57 117.623 169.917 117.61 169.308 117.3C168.683 116.945 168.236 116.391 167.968 115.637C167.653 114.751 167.667 113.806 168.009 112.805L168.481 111.395C169.806 107.406 170.732 104.188 171.259 101.741C171.587 100.137 171.827 98.2885 171.982 96.1963C172.179 94.0864 172.388 91.2363 172.608 87.6459C172.743 85.3586 174.118 83.6833 176.733 82.62C177.953 82.1237 178.842 81.8889 179.4 81.9156C179.958 81.9423 180.324 82.1995 180.498 82.6871C180.592 82.9531 180.655 83.4096 180.685 84.0568C180.716 84.704 180.681 85.3777 180.581 86.0781C180.363 87.993 180.452 89.5045 180.846 90.6127C181.082 91.2777 181.56 91.9205 182.28 92.5412C183.043 93.1441 184.116 93.8491 185.5 94.6561C187.557 95.9508 189.17 97.1213 190.34 98.1676C191.538 99.1518 192.413 100.42 192.964 101.971C193.626 103.833 193.821 105.783 193.548 107.822C193.303 109.799 192.599 111.608 191.436 113.248C190.273 114.888 188.711 116.106 186.75 116.904Z" fill="#EF5152"/>
<path d="M200.144 81.1563C200.679 83.4524 201.121 85.2354 201.471 86.5054C202.372 89.771 203.235 92.2841 204.061 94.0446C204.92 95.7457 205.844 96.8841 206.832 97.46C207.852 97.9764 209.057 98.0153 210.448 97.5768C211.166 97.3504 211.956 96.8549 212.818 96.0901C213.68 95.3253 214.415 94.4527 215.023 93.4724C215.391 92.8632 215.822 92.4808 216.316 92.3252C216.854 92.1554 217.368 92.3385 217.857 92.8744C218.379 93.3509 218.758 94.02 218.996 94.8817C219.233 95.7435 219.285 96.6392 219.151 97.5687C219.062 98.4842 218.756 99.3201 218.233 100.077C216.437 102.763 214.059 104.572 211.097 105.506C206.835 106.85 203.223 106.042 200.261 103.081C197.287 100.075 194.999 95.6694 193.399 89.8639C192.849 87.8683 192.36 85.8287 191.933 83.7453L189.308 84.5729C187.962 84.9973 186.973 85.0379 186.342 84.6946C185.756 84.3372 185.313 83.6142 185.013 82.5256C184.313 79.9857 184.972 78.3975 186.991 77.7608L190.828 76.5512C190.215 71.3216 190.126 66.3956 190.559 61.773C190.991 57.1505 191.97 53.2681 193.493 50.1256C195.062 46.9691 197.125 44.9876 199.682 44.1812C201.567 43.587 203.279 43.9592 204.818 45.2979C206.357 46.6365 207.477 48.5758 208.177 51.1157C210.115 58.1458 208.886 65.1884 204.49 72.2434L212.028 69.8667C212.746 69.6403 213.306 69.6364 213.708 69.8548C214.109 70.0733 214.429 70.6134 214.666 71.4751C215.529 74.6047 213.425 76.9688 208.355 78.5674L200.144 81.1563ZM199.665 51.2854C198.992 51.4976 198.467 52.5998 198.089 54.5922C197.744 56.525 197.609 59.131 197.684 62.4104C197.791 65.6302 198.104 69.1548 198.623 72.9842C200.633 69.8364 201.894 66.6287 202.408 63.361C202.954 60.0338 202.902 57.191 202.252 54.8325C201.515 52.1565 200.652 50.9741 199.665 51.2854Z" fill="#EF5152"/>
<path d="M229.021 100.717C226.404 101.301 224.066 100.738 222.008 99.0286C219.995 97.309 218.661 94.7637 218.004 91.3928C217.283 87.6986 217.453 84.0227 218.513 80.3652C219.564 76.6616 221.297 73.5046 223.71 70.8943C226.161 68.2276 228.971 66.5409 232.139 65.8344C233.15 65.6091 233.856 65.6684 234.258 66.0123C234.698 66.2998 235.131 66.9259 235.559 67.8906C236.395 67.5113 237.342 67.2039 238.398 66.9684C239.5 66.7226 240.403 66.8102 241.108 67.2313C241.813 67.6523 242.265 68.3707 242.463 69.3866C242.67 70.4487 242.8 72.347 242.854 75.0815C242.898 78.011 243.034 80.7994 243.263 83.4468C243.483 86.048 243.903 88.9417 244.524 92.128C244.866 93.8827 244.746 95.2345 244.165 96.1834C243.62 97.0758 242.544 97.7013 240.937 98.0597C239.376 98.4078 238.133 98.2995 237.208 97.7348C236.32 97.1136 235.71 95.9487 235.377 94.2402L235.23 93.1166C234.58 97.4053 232.511 99.9388 229.021 100.717ZM230.343 93.1221C231.629 92.8353 232.624 91.6738 233.33 89.6373C234.035 87.6009 234.35 84.1816 234.277 79.3795L234.222 72.0918C232.348 72.5578 230.747 73.6858 229.419 75.4757C228.082 77.2194 227.156 79.3533 226.642 81.8772C226.128 84.4011 226.123 86.956 226.627 89.542C226.897 90.9273 227.356 91.9331 228.006 92.5593C228.692 93.129 229.471 93.3166 230.343 93.1221Z" fill="#EF5152"/>
<path d="M253.826 95.8925C252.052 96.1191 250.688 95.3449 249.732 93.5701C248.823 91.7893 248.139 88.8416 247.68 84.7271C247.001 78.6488 247.219 72.7641 248.335 67.0731C248.604 65.6635 249.171 64.5952 250.036 63.8681C250.943 63.0883 252.26 62.5881 253.986 62.3675C254.92 62.2482 255.586 62.2816 255.986 62.4677C256.385 62.6538 256.621 63.0741 256.694 63.7287C256.778 64.4768 256.616 66.2048 256.208 68.9125C255.951 70.8424 255.76 72.5265 255.637 73.965C255.513 75.4035 255.473 77.1632 255.516 79.2444C256.607 75.0266 257.968 71.533 259.6 68.7638C261.231 65.9945 262.897 63.9559 264.597 62.648C266.343 61.3341 267.987 60.5787 269.527 60.382C271.02 60.1912 272.184 60.4455 273.02 61.145C273.897 61.7917 274.419 62.8632 274.586 64.3594C274.722 65.575 274.721 67.8989 274.583 71.3309C274.435 74.2426 274.365 77.0022 274.372 79.6095C274.374 82.1701 274.55 85.0167 274.9 88.1494C275.098 89.9261 274.868 91.2596 274.21 92.1498C273.594 92.9874 272.469 93.5105 270.836 93.7192C269.296 93.9159 268.131 93.6616 267.343 92.9562C266.554 92.2508 266.071 91.1032 265.893 89.5135C265.684 87.6433 265.666 84.5156 265.839 80.1306C265.981 76.3186 265.995 73.8983 265.88 72.8696C265.797 72.1215 265.498 71.7803 264.985 71.8459C264.378 71.9234 263.604 72.8285 262.661 74.5613C261.76 76.2414 260.87 78.4418 259.99 81.1624C259.158 83.8771 258.55 86.7052 258.169 89.6468C257.901 91.9099 257.461 93.4836 256.85 94.3679C256.28 95.1994 255.272 95.7076 253.826 95.8925Z" fill="#EF5152"/>
<path d="M303.746 76.2089C304.367 80.0494 305.222 83.8355 306.312 87.5673C306.516 88.1729 306.627 88.8049 306.645 89.4633C306.702 91.5796 305.438 92.6778 302.851 92.7577C301.394 92.8028 300.254 92.4379 299.433 91.6631C298.659 90.8869 297.913 89.4037 297.195 87.2137L297.117 86.9337C295.39 89.1993 293.808 90.7309 292.37 91.5284C290.98 92.3245 289.344 92.7516 287.463 92.8097C284.595 92.8984 282.191 91.9136 280.253 89.8554C278.361 87.7487 277.368 84.9788 277.275 81.5457C277.174 77.7833 277.879 74.2784 279.392 71.031C280.904 67.7836 283.02 65.1058 285.74 62.9978C288.458 60.8428 291.528 59.5006 294.95 58.9712C295.603 50.055 297.087 42.2663 299.401 35.6052C301.763 28.9426 305.036 25.5466 309.221 25.4172C311.243 25.3547 312.937 26.2202 314.304 28.0137C315.717 29.8057 316.474 32.5593 316.574 36.2747C316.714 41.4479 315.607 47.5304 313.255 54.5223C310.902 61.5141 307.733 68.743 303.746 76.2089ZM308.632 32.3545C307.268 32.3967 306.069 35.9168 305.035 42.915C304.047 49.9117 303.452 57.5082 303.25 65.7044C308.165 54.256 310.527 45.0045 310.336 37.9501C310.288 36.163 310.086 34.7807 309.73 33.8033C309.421 32.8244 309.055 32.3415 308.632 32.3545ZM289.739 85.6084C290.68 85.5794 291.564 85.199 292.391 84.4674C293.266 83.7344 294.357 82.3356 295.666 80.2712C295.103 76.8526 294.772 73.3091 294.673 69.6408C294.634 68.1829 294.627 67.0535 294.652 66.2525C292.086 67.0849 289.993 68.8676 288.373 71.6006C286.752 74.3337 285.986 77.3227 286.073 80.5677C286.166 84.0009 287.388 85.6811 289.739 85.6084Z" fill="#EF5152"/>
<path d="M355.745 97.6415C350.203 96.8465 345.509 95.1514 341.663 92.5561C337.822 89.9142 335.042 86.5691 333.321 82.5206C331.601 78.4721 331.051 73.9737 331.671 69.0255C332.532 62.1634 334.576 56.2553 337.805 51.3011C341.08 46.3536 345.112 42.7501 349.899 40.4905C354.692 38.1843 359.789 37.4187 365.191 38.1937C370.221 38.9153 373.876 40.7702 376.156 43.7585C378.442 46.7001 379.318 50.2949 378.786 54.5428C378.428 57.3904 377.629 59.6043 376.388 61.1845C375.194 62.7714 373.665 63.4312 371.802 63.164C370.498 62.9769 369.512 62.5265 368.843 61.8127C368.174 61.099 367.912 60.1586 368.059 58.9916C368.111 58.5714 368.301 57.8146 368.628 56.7209C369.083 55.3606 369.363 54.2603 369.469 53.42C370.001 49.1721 368.009 46.724 363.492 46.076C360.418 45.635 357.358 46.2178 354.312 47.8242C351.266 49.4306 348.636 52.0708 346.421 55.7448C344.212 59.3722 342.771 63.87 342.098 69.2383C341.396 74.84 342.411 79.4052 345.145 82.9338C347.885 86.4157 352.305 88.5942 358.406 89.4694C361.433 89.9037 364.53 89.9679 367.697 89.6619C370.917 89.316 374.512 88.62 378.483 87.574C379.217 87.3941 379.817 87.3376 380.282 87.4044C381.028 87.5113 381.551 87.8716 381.854 88.4852C382.156 89.0988 382.251 89.8491 382.14 90.736C381.783 93.5836 379.983 95.4638 376.74 96.3766C373.252 97.3493 369.671 97.9286 365.997 98.1144C362.376 98.2601 358.959 98.1025 355.745 97.6415Z" fill="#EF5152"/>
<path d="M379.987 101.964C377.39 101.294 375.505 99.7152 374.33 97.2269C373.202 94.7503 373.015 91.8369 373.771 88.4866C374.598 84.8151 376.223 81.5674 378.643 78.7438C381.074 75.8742 383.901 73.8111 387.125 72.5545C390.404 71.2638 393.616 71.0239 396.759 71.8348C397.762 72.0933 398.376 72.4702 398.601 72.9655C398.883 73.4267 399.024 74.1915 399.024 75.2599C399.931 75.2996 400.908 75.4546 401.956 75.7249C403.049 76.007 403.83 76.4998 404.298 77.2033C404.766 77.9068 404.886 78.7634 404.659 79.773C404.421 80.8286 403.779 82.6056 402.733 85.1041C401.601 87.7744 400.608 90.3593 399.755 92.8589C398.913 95.3125 398.135 98.1227 397.421 101.289C397.027 103.033 396.378 104.202 395.473 104.794C394.625 105.352 393.403 105.425 391.808 105.014C390.26 104.614 389.181 103.947 388.572 103.013C388.019 102.045 387.934 100.712 388.317 99.0138L388.633 97.9299C386.331 101.513 383.449 102.857 379.987 101.964ZM384.22 95.6986C385.495 96.0277 386.859 95.4324 388.31 93.9128C389.761 92.3932 391.415 89.4445 393.269 85.0666L396.136 78.4485C394.258 78.0126 392.361 78.3003 390.446 79.3118C388.541 80.2773 386.851 81.784 385.377 83.8319C383.903 85.8798 382.876 88.1888 382.297 90.7589C381.986 92.1358 381.999 93.256 382.334 94.1195C382.726 94.949 383.354 95.4753 384.22 95.6986Z" fill="#EF5152"/>
<path d="M420.963 105.191C421.588 104.911 422.146 104.856 422.634 105.026C423.168 105.212 423.494 105.674 423.613 106.412C423.791 107.121 423.75 107.903 423.49 108.758C422.915 110.648 421.79 111.924 420.115 112.586C417.215 113.718 414.299 113.774 411.367 112.753C407.145 111.285 404.598 108.433 403.724 104.197C402.864 99.9155 403.31 94.8942 405.062 89.1327C406.731 83.6413 409.323 77.6242 412.835 71.0816C416.392 64.5544 420.293 59.2416 424.536 55.1432C428.824 51.0602 432.856 49.6757 436.633 50.9896C438.766 51.7315 440.125 53.3239 440.708 55.7668C441.35 58.1801 441.103 61.2548 439.967 64.9908C438.339 70.3472 434.983 76.0487 429.902 82.0953C424.865 88.1574 418.789 93.7586 411.673 98.8987C411.423 100.852 411.575 102.373 412.128 103.462C412.682 104.55 413.647 105.334 415.025 105.813C415.78 106.076 416.693 106.145 417.763 106.019C418.877 105.909 419.944 105.633 420.963 105.191ZM433.135 57.1637C432.113 56.8082 430.389 58.2743 427.965 61.562C425.54 64.8497 422.997 69.0917 420.336 74.2881C417.675 79.4845 415.527 84.6104 413.891 89.6658C418.648 85.4969 422.759 81.1039 426.227 76.4867C429.708 71.8246 432.113 67.3104 433.441 62.9443C434.481 59.5234 434.379 57.5965 433.135 57.1637Z" fill="#EF5152"/>
<path d="M446.241 113.874C446.802 114.12 447.131 114.572 447.231 115.231C447.374 115.91 447.268 116.71 446.915 117.633C446.309 119.214 445.421 120.416 444.251 121.237C442.321 122.597 440.163 123.37 437.777 123.556C435.434 123.761 432.905 123.268 430.19 122.078C426.053 120.265 423.323 117.606 421.998 114.101C420.691 110.552 420.862 106.625 422.511 102.319C423.673 99.288 425.374 96.7501 427.617 94.7057C429.877 92.6174 432.4 91.286 435.186 90.7115C438.016 90.1558 440.831 90.4918 443.632 91.7193C446.131 92.8146 447.841 94.4616 448.76 96.6603C449.696 98.815 449.667 101.188 448.674 103.78C447.513 106.812 445.434 108.954 442.438 110.206C439.502 111.433 435.226 111.56 429.61 110.587C429.87 113.061 431.228 114.837 433.684 115.913C435.451 116.687 437.054 116.903 438.494 116.559C439.978 116.234 441.852 115.414 444.118 114.098C444.887 113.665 445.595 113.591 446.241 113.874ZM440.059 97.6959C438.465 96.9971 436.746 97.3468 434.902 98.7449C433.101 100.162 431.687 102.21 430.66 104.89L430.61 105.022C433.388 105.521 435.745 105.477 437.681 104.889C439.617 104.301 440.897 103.194 441.52 101.568C441.839 100.734 441.855 99.9709 441.566 99.2799C441.337 98.5638 440.835 98.0358 440.059 97.6959Z" fill="#EF5152"/>
<path d="M446.223 130.333C444.654 129.476 443.945 128.018 444.095 125.959C444.287 123.922 445.275 121.036 447.059 117.3C449.695 111.781 452.962 106.955 456.862 102.822C457.821 101.794 458.846 101.23 459.935 101.129C461.086 101.008 462.425 101.365 463.953 102.2C464.778 102.651 465.306 103.073 465.535 103.465C465.764 103.858 465.736 104.352 465.452 104.946C465.128 105.625 464.088 106.984 462.334 109.024C461.11 110.496 460.07 111.802 459.214 112.94C458.358 114.078 457.402 115.536 456.345 117.314C459.451 114.407 462.397 112.27 465.185 110.902C467.972 109.535 470.404 108.802 472.481 108.705C474.599 108.631 476.339 108.966 477.701 109.711C479.023 110.432 479.841 111.335 480.157 112.417C480.535 113.48 480.399 114.691 479.75 116.049C479.223 117.153 478.003 119.109 476.089 121.918C474.439 124.282 472.933 126.564 471.57 128.763C470.228 130.921 468.877 133.421 467.519 136.266C466.749 137.879 465.861 138.866 464.856 139.227C463.912 139.568 462.718 139.344 461.273 138.554C459.91 137.81 459.091 136.908 458.817 135.848C458.542 134.788 458.749 133.536 459.439 132.092C460.25 130.394 461.877 127.75 464.32 124.16C466.437 121.034 467.719 119.005 468.165 118.071C468.489 117.391 468.424 116.928 467.97 116.68C467.434 116.386 466.325 116.691 464.645 117.593C463.026 118.475 461.143 119.802 458.996 121.573C456.89 123.367 454.909 125.389 453.053 127.64C451.646 129.388 450.461 130.453 449.497 130.836C448.594 131.2 447.503 131.032 446.223 130.333Z" fill="#EF5152"/>
<path d="M497.333 143.635C495.804 147.248 494.494 150.952 493.403 154.747C493.249 155.379 493.005 155.979 492.67 156.547C491.596 158.371 489.986 158.56 487.84 157.114C486.631 156.299 485.897 155.323 485.64 154.187C485.422 153.077 485.6 151.386 486.177 149.113L486.261 148.83C483.656 149.736 481.558 150.106 479.967 149.939C478.414 149.799 476.858 149.203 475.297 148.152C472.917 146.548 471.484 144.308 470.998 141.432C470.575 138.542 471.235 135.618 472.978 132.658C474.888 129.416 477.319 126.863 480.269 125C483.219 123.138 486.359 122.11 489.687 121.919C493.04 121.686 496.247 122.347 499.31 123.902C504.565 116.74 509.897 111.018 515.308 106.736C520.758 102.481 525.219 101.523 528.691 103.863C530.369 104.994 531.288 106.718 531.449 109.035C531.649 111.378 530.806 114.151 528.92 117.353C526.293 121.812 522.171 126.311 516.555 130.851C510.938 135.39 504.531 139.651 497.333 143.635ZM524.537 109.388C523.406 108.626 520.566 110.903 516.017 116.218C511.508 121.56 507 127.64 502.494 134.457C512.556 127.646 519.377 121.201 522.959 115.12C523.867 113.58 524.434 112.292 524.663 111.257C524.93 110.248 524.888 109.625 524.537 109.388ZM480.963 143.391C481.743 143.917 482.664 144.112 483.724 143.977C484.824 143.869 486.452 143.324 488.611 142.344C489.964 139.122 491.571 135.93 493.434 132.768C494.174 131.511 494.767 130.551 495.212 129.888C492.684 129.091 490.037 129.374 487.271 130.738C484.506 132.103 482.299 134.183 480.652 136.98C478.908 139.939 479.012 142.076 480.963 143.391Z" fill="#EF5152"/>
<path d="M499.427 166.445C497.346 164.754 496.262 162.511 496.175 159.716C496.123 156.952 497.093 154.17 499.082 151.371C501.263 148.303 503.996 145.957 507.282 144.332C510.595 142.669 513.95 141.919 517.349 142.08C520.811 142.233 523.802 143.334 526.321 145.382C527.124 146.035 527.53 146.638 527.541 147.19C527.615 147.735 527.443 148.503 527.026 149.495C527.828 149.905 528.65 150.452 529.489 151.135C530.365 151.847 530.877 152.626 531.024 153.472C531.172 154.318 530.946 155.163 530.346 156.007C529.719 156.889 528.447 158.274 526.528 160.163C524.464 162.176 522.559 164.167 520.814 166.136C519.096 168.067 517.297 170.356 515.416 173.002C514.38 174.459 513.339 175.276 512.291 175.453C511.308 175.622 510.177 175.186 508.899 174.147C507.658 173.138 506.946 172.075 506.761 170.957C506.64 169.83 507.084 168.557 508.093 167.138L508.802 166.262C505.326 168.64 502.201 168.701 499.427 166.445ZM505.692 162.372C506.714 163.203 508.176 163.212 510.078 162.399C511.981 161.586 514.624 159.53 518.006 156.229L523.176 151.265C521.652 150.087 519.829 149.573 517.706 149.722C515.611 149.834 513.498 150.537 511.369 151.831C509.24 153.125 507.412 154.846 505.886 156.993C505.068 158.144 504.642 159.189 504.607 160.129C504.637 161.06 504.998 161.808 505.692 162.372Z" fill="#EF5152"/>
<path d="M550.653 182.109C551.395 182.83 551.776 183.724 551.794 184.789C551.877 185.852 551.568 186.795 550.867 187.62C550.471 188.086 549.943 188.489 549.284 188.83C547.617 189.632 545.913 190.005 544.173 189.95C542.434 189.896 540.973 189.294 539.793 188.146C538.848 187.228 538.343 186.082 538.278 184.71C538.247 183.369 538.749 182.09 539.785 180.871C540.364 180.19 541.022 179.488 541.76 178.765C542.314 178.257 542.683 177.895 542.866 177.68C543.11 177.393 543.225 177.113 543.212 176.838C543.233 176.596 543.159 176.393 542.99 176.23C542.518 175.77 541.359 175.757 539.514 176.188C537.699 176.584 535.549 177.375 533.063 178.559C530.578 179.744 528.153 181.183 525.789 182.878C523.955 184.238 522.559 184.975 521.599 185.09C520.639 185.204 519.62 184.737 518.54 183.687C517.259 182.441 516.957 180.839 517.636 178.88C518.349 176.954 520.046 174.414 522.727 171.259C526.688 166.599 531.074 162.778 535.887 159.797C537.074 159.053 538.203 158.775 539.274 158.965C540.409 159.152 541.6 159.852 542.848 161.066C543.523 161.722 543.919 162.271 544.036 162.712C544.154 163.154 543.999 163.625 543.573 164.127C543.085 164.701 541.736 165.746 539.524 167.261C537.968 168.367 536.631 169.359 535.515 170.238C534.399 171.117 533.103 172.279 531.627 173.725C535.36 171.725 538.741 170.429 541.769 169.838C544.798 169.246 547.32 169.178 549.336 169.633C551.352 170.087 552.9 170.839 553.98 171.889C554.958 172.84 555.441 173.866 555.429 174.967C555.481 176.066 555.02 177.188 554.045 178.335C553.466 179.017 552.184 180.127 550.198 181.666L550.653 182.109Z" fill="#EF5152"/>
<path d="M72.4831 198.998C65.1239 204.803 78.9883 187.763 81.4764 185.724C91.2371 177.724 101.449 170.333 111.96 163.493C143.317 143.088 177.399 127.193 212.874 116.851C315.806 86.8417 435.595 114.652 516.451 190.902C527.259 201.095 503.742 206.779 490.007 200.529C474.141 193.309 468.947 186.093 456.426 176.845C429.591 157.026 399.893 141.626 368.431 132.106C267.112 101.446 155.568 133.463 72.4831 198.998Z" fill="#EF5152"/>
<path d="M410 96C407.167 98.5 401 106 391.5 101.5" stroke="#EF5152" stroke-width="6"/>
<path d="M139 113.5C140 117.5 137 122 136 132" stroke="#EF5152" stroke-width="6"/>
<path d="M114 131C117 133.5 117 150.5 104 146.5" stroke="#EF5152" stroke-width="6"/>
</svg>
